<svg width="39" height="39" viewBox="0 0 39 39" fill="none" xmlns="http://www.w3.org/2000/svg">
<path d="M19.5 24.375C22.1924 24.375 24.375 22.1924 24.375 19.5C24.375 16.8076 22.1924 14.625 19.5 14.625C16.8076 14.625 14.625 16.8076 14.625 19.5C14.625 22.1924 16.8076 24.375 19.5 24.375Z" stroke="#AB0E92" stroke-width="2" stroke-linecap="round" stroke-linejoin="round"/>
<path d="M31.525 24.375C31.3087 24.8651 31.2442 25.4088 31.3397 25.936C31.4353 26.4631 31.6866 26.9495 32.0612 27.3325L32.1588 27.43C32.4609 27.7318 32.7006 28.0903 32.8642 28.4848C33.0277 28.8794 33.1119 29.3023 33.1119 29.7294C33.1119 30.1565 33.0277 30.5794 32.8642 30.9739C32.7006 31.3685 32.4609 31.7269 32.1588 32.0287C31.8569 32.3309 31.4985 32.5706 31.1039 32.7342C30.7094 32.8977 30.2865 32.9819 29.8594 32.9819C29.4323 32.9819 29.0094 32.8977 28.6148 32.7342C28.2203 32.5706 27.8618 32.3309 27.56 32.0287L27.4625 31.9312C27.0795 31.5566 26.5931 31.3053 26.066 31.2097C25.5388 31.1142 24.9951 31.1787 24.505 31.395C24.0244 31.601 23.6145 31.943 23.3257 32.379C23.037 32.815 22.8821 33.3258 22.88 33.8487V34.125C22.88 34.987 22.5376 35.8136 21.9281 36.4231C21.3186 37.0326 20.492 37.375 19.63 37.375C18.768 37.375 17.9414 37.0326 17.3319 36.4231C16.7224 35.8136 16.38 34.987 16.38 34.125V33.9787C16.3674 33.4409 16.1933 32.9192 15.8803 32.4816C15.5673 32.044 15.1299 31.7107 14.625 31.525C14.1349 31.3087 13.5912 31.2442 13.064 31.3397C12.5369 31.4353 12.0505 31.6866 11.6675 32.0612L11.57 32.1588C11.2682 32.4609 10.9097 32.7006 10.5152 32.8642C10.1206 33.0277 9.69773 33.1119 9.27062 33.1119C8.84352 33.1119 8.42061 33.0277 8.02607 32.8642C7.63153 32.7006 7.27309 32.4609 6.97125 32.1588C6.66908 31.8569 6.42936 31.4985 6.26581 31.1039C6.10225 30.7094 6.01807 30.2865 6.01807 29.8594C6.01807 29.4323 6.10225 29.0094 6.26581 28.6148C6.42936 28.2203 6.66908 27.8618 6.97125 27.56L7.06875 27.4625C7.44337 27.0795 7.69468 26.5931 7.79026 26.066C7.88584 25.5388 7.82131 24.9951 7.605 24.505C7.39901 24.0244 7.05698 23.6145 6.62101 23.3257C6.18503 23.037 5.67415 22.8821 5.15125 22.88H4.875C4.01305 22.88 3.1864 22.5376 2.5769 21.9281C1.96741 21.3186 1.625 20.492 1.625 19.63C1.625 18.768 1.96741 17.9414 2.5769 17.3319C3.1864 16.7224 4.01305 16.38 4.875 16.38H5.02125C5.55912 16.3674 6.08076 16.1933 6.51836 15.8803C6.95596 15.5673 7.28929 15.1299 7.475 14.625C7.69131 14.1349 7.75584 13.5912 7.66026 13.064C7.56468 12.5369 7.31337 12.0505 6.93875 11.6675L6.84125 11.57C6.53908 11.2682 6.29936 10.9097 6.13581 10.5152C5.97225 10.1206 5.88807 9.69772 5.88807 9.27062C5.88807 8.84352 5.97225 8.42061 6.13581 8.02607C6.29936 7.63152 6.53908 7.27309 6.84125 6.97125C7.14309 6.66908 7.50153 6.42936 7.89607 6.26581C8.29061 6.10225 8.71352 6.01807 9.14062 6.01807C9.56773 6.01807 9.99064 6.10225 10.3852 6.26581C10.7797 6.42936 11.1382 6.66908 11.44 6.97125L11.5375 7.06875C11.9205 7.44337 12.4069 7.69468 12.934 7.79026C13.4612 7.88584 14.0049 7.82131 14.495 7.605H14.625C15.1056 7.39901 15.5155 7.05698 15.8043 6.62101C16.093 6.18503 16.2479 5.67415 16.25 5.15125V4.875C16.25 4.01305 16.5924 3.1864 17.2019 2.5769C17.8114 1.96741 18.638 1.625 19.5 1.625C20.362 1.625 21.1886 1.96741 21.7981 2.5769C22.4076 3.1864 22.75 4.01305 22.75 4.875V5.02125C22.7521 5.54415 22.907 6.05503 23.1957 6.49101C23.4845 6.92698 23.8944 7.26901 24.375 7.475C24.8651 7.69131 25.4088 7.75584 25.936 7.66026C26.4631 7.56468 26.9495 7.31337 27.3325 6.93875L27.43 6.84125C27.7318 6.53908 28.0903 6.29936 28.4848 6.13581C28.8794 5.97225 29.3023 5.88807 29.7294 5.88807C30.1565 5.88807 30.5794 5.97225 30.9739 6.13581C31.3685 6.29936 31.7269 6.53908 32.0287 6.84125C32.3309 7.14309 32.5706 7.50152 32.7342 7.89607C32.8977 8.29061 32.9819 8.71352 32.9819 9.14062C32.9819 9.56772 32.8977 9.99064 32.7342 10.3852C32.5706 10.7797 32.3309 11.1382 32.0287 11.44L31.9312 11.5375C31.5566 11.9205 31.3053 12.4069 31.2097 12.934C31.1142 13.4612 31.1787 14.0049 31.395 14.495V14.625C31.601 15.1056 31.943 15.5155 32.379 15.8043C32.815 16.093 33.3258 16.2479 33.8487 16.25H34.125C34.987 16.25 35.8136 16.5924 36.4231 17.2019C37.0326 17.8114 37.375 18.638 37.375 19.5C37.375 20.362 37.0326 21.1886 36.4231 21.7981C35.8136 22.4076 34.987 22.75 34.125 22.75H33.9787C33.4558 22.7521 32.945 22.907 32.509 23.1957C32.073 23.4845 31.731 23.8944 31.525 24.375V24.375Z" stroke="#AB0E92" stroke-width="2" stroke-linecap="round" stroke-linejoin="round"/>
</svg>
