<svg width="158" height="34" viewBox="0 0 158 34" fill="none" xmlns="http://www.w3.org/2000/svg">
<path d="M16.112 33.46C13.168 33.46 10.5613 33.0307 8.292 32.172C6.02267 31.3133 4.21333 29.964 2.864 28.124C1.54533 26.284 0.824667 23.9073 0.702 20.994C0.671333 19.7367 0.656 18.3873 0.656 16.946C0.656 15.5047 0.671333 14.1247 0.702 12.806C0.824667 9.954 1.56067 7.608 2.91 5.768C4.29 3.928 6.11467 2.56333 8.384 1.674C10.684 0.784665 13.26 0.339998 16.112 0.339998C18.0747 0.339998 19.9607 0.569998 21.77 1.03C23.61 1.45933 25.266 2.14933 26.738 3.1C28.21 4.05067 29.3753 5.27733 30.234 6.78C31.1233 8.252 31.5833 10.0307 31.614 12.116C31.614 12.392 31.5067 12.6373 31.292 12.852C31.108 13.036 30.878 13.128 30.602 13.128H21.218C20.7273 13.128 20.3593 13.036 20.114 12.852C19.8993 12.6373 19.7 12.2847 19.516 11.794C19.1787 10.8127 18.7187 10.1533 18.136 9.816C17.5533 9.47867 16.8633 9.31 16.066 9.31C15.054 9.31 14.2413 9.586 13.628 10.138C13.0453 10.6593 12.7233 11.6253 12.662 13.036C12.57 15.5507 12.57 18.1267 12.662 20.764C12.7233 22.1747 13.0453 23.156 13.628 23.708C14.2413 24.2293 15.054 24.49 16.066 24.49C16.8633 24.49 17.5533 24.306 18.136 23.938C18.7493 23.57 19.2093 22.926 19.516 22.006C19.6693 21.4847 19.8687 21.132 20.114 20.948C20.3593 20.764 20.7273 20.672 21.218 20.672H30.602C30.878 20.672 31.108 20.7793 31.292 20.994C31.5067 21.178 31.614 21.408 31.614 21.684C31.5833 23.7693 31.1233 25.5633 30.234 27.066C29.3753 28.538 28.21 29.7493 26.738 30.7C25.266 31.6507 23.61 32.356 21.77 32.816C19.9607 33.2453 18.0747 33.46 16.112 33.46ZM19.056 2.916C18.7187 2.76266 18.4427 2.67067 18.228 2.64C18.0133 2.57866 17.7833 2.686 17.538 2.962C17.2313 3.29933 17.032 3.59067 16.94 3.836C16.848 4.05067 16.9247 4.35733 17.17 4.756C17.4153 5.18533 17.6453 5.46133 17.86 5.584C18.1053 5.676 18.458 5.66066 18.918 5.538C19.4393 5.446 19.8073 5.32333 20.022 5.17C20.2673 4.986 20.4207 4.63333 20.482 4.112C20.5127 3.652 20.39 3.39133 20.114 3.33C19.838 3.238 19.4853 3.1 19.056 2.916ZM11.696 4.894C11.604 4.31133 11.5427 3.836 11.512 3.468C11.4813 3.1 11.1747 2.87 10.592 2.778C9.91733 2.65533 9.41133 2.686 9.074 2.87C8.76733 3.054 8.46067 3.45267 8.154 4.066C7.81667 4.67933 7.67867 5.17 7.74 5.538C7.832 5.87533 8.12333 6.274 8.614 6.734C9.04333 7.194 9.41133 7.39333 9.718 7.332C10.0553 7.24 10.5 7.056 11.052 6.78C11.4813 6.53467 11.7113 6.28933 11.742 6.044C11.7727 5.768 11.7573 5.38467 11.696 4.894ZM23.656 3.514C23.564 3.26866 23.4567 3.11533 23.334 3.054C23.2113 2.99266 23.0273 2.97733 22.782 3.008C22.5673 3.03867 22.4447 3.11533 22.414 3.238C22.3833 3.33 22.3373 3.48333 22.276 3.698C22.2453 3.91266 22.1993 4.08133 22.138 4.204C22.1073 4.32666 22.184 4.44933 22.368 4.572C22.5827 4.72533 22.7667 4.81733 22.92 4.848C23.0733 4.848 23.242 4.756 23.426 4.572C23.6407 4.388 23.748 4.23467 23.748 4.112C23.7787 3.95867 23.748 3.75933 23.656 3.514ZM25.496 3.836C25.2813 3.80533 25.1127 3.836 24.99 3.928C24.898 3.98933 24.806 4.112 24.714 4.296C24.5913 4.54133 24.4993 4.74066 24.438 4.894C24.4073 5.01667 24.484 5.17 24.668 5.354C24.8213 5.50733 24.9593 5.538 25.082 5.446C25.2047 5.32333 25.3733 5.216 25.588 5.124C25.772 5.032 25.9253 4.97067 26.048 4.94C26.1707 4.87866 26.2167 4.74066 26.186 4.526C26.1247 4.158 25.8947 3.928 25.496 3.836ZM15.422 4.112L14.962 3.836L14.64 4.158L14.732 4.572L15.146 4.48L15.422 4.112ZM27.888 6.32L27.52 6.55L27.658 6.918L28.026 7.01L28.21 6.596L27.888 6.32ZM21.632 7.286L21.034 7.424L21.126 7.976L21.586 8.16L21.862 7.746L21.632 7.286ZM25.45 7.424C25.2353 7.39333 25.0667 7.378 24.944 7.378C24.8213 7.378 24.714 7.48533 24.622 7.7C24.4993 7.91467 24.4227 8.09866 24.392 8.252C24.392 8.37466 24.484 8.54333 24.668 8.758C24.8213 8.91133 24.9593 8.95733 25.082 8.896C25.2353 8.804 25.4193 8.712 25.634 8.62C25.818 8.528 25.956 8.45133 26.048 8.39C26.14 8.298 26.1707 8.16 26.14 7.976C26.1093 7.76133 26.0327 7.62333 25.91 7.562C25.818 7.50067 25.6647 7.45467 25.45 7.424ZM6.728 7.516L6.13 7.47L6.038 8.16L6.59 8.206L7.004 7.93L6.728 7.516ZM28.026 9.54L27.658 9.126L27.014 9.356L27.152 10.046L27.75 10L28.026 9.54ZM11.006 10.414L10.638 10.552L10.73 10.966L11.144 11.104L11.374 10.644L11.006 10.414ZM29.176 10.69L28.624 10.644L28.44 11.15L28.808 11.472L29.13 11.15L29.176 10.69ZM5.808 11.104C5.716 10.8587 5.56267 10.7513 5.348 10.782C5.164 10.8127 5.04133 10.9507 4.98 11.196C4.94933 11.3493 4.91867 11.472 4.888 11.564C4.888 11.656 4.94933 11.7327 5.072 11.794C5.256 11.886 5.394 11.9473 5.486 11.978C5.60867 12.0087 5.73133 11.9627 5.854 11.84C6.00733 11.7173 6.05333 11.61 5.992 11.518C5.96133 11.426 5.9 11.288 5.808 11.104ZM21.954 11.012L21.586 10.828L21.494 11.242L21.678 11.656L22.092 11.38L21.954 11.012ZM8.476 12.024C8.23067 12.024 8.03133 12.024 7.878 12.024C7.72467 11.9933 7.602 12.1007 7.51 12.346C7.418 12.622 7.40267 12.8213 7.464 12.944C7.556 13.0667 7.70933 13.22 7.924 13.404C8.108 13.5573 8.26133 13.6033 8.384 13.542C8.50667 13.45 8.66 13.3273 8.844 13.174C9.08933 13.0207 9.166 12.7907 9.074 12.484C8.982 12.1773 8.78267 12.024 8.476 12.024ZM3.462 13.726C3.33933 13.4807 3.232 13.2967 3.14 13.174C3.07867 13.0513 2.91 13.0053 2.634 13.036C2.358 13.0667 2.174 13.1433 2.082 13.266C1.99 13.3887 1.91333 13.588 1.852 13.864C1.82133 14.1093 1.852 14.278 1.944 14.37C2.06667 14.4313 2.23533 14.5233 2.45 14.646C2.66467 14.7687 2.83333 14.8607 2.956 14.922C3.07867 14.9527 3.232 14.8913 3.416 14.738C3.6 14.554 3.67667 14.4007 3.646 14.278C3.61533 14.1553 3.554 13.9713 3.462 13.726ZM9.764 16.302C9.304 16.2407 8.936 16.1947 8.66 16.164C8.41467 16.1333 8.18467 16.3173 7.97 16.716C7.72467 17.176 7.602 17.544 7.602 17.82C7.63267 18.096 7.832 18.4333 8.2 18.832C8.568 19.2 8.89 19.4147 9.166 19.476C9.47267 19.5373 9.87133 19.4453 10.362 19.2C10.822 18.9853 11.0827 18.7553 11.144 18.51C11.236 18.234 11.2513 17.8353 11.19 17.314C11.1287 16.8847 10.9753 16.6393 10.73 16.578C10.5153 16.486 10.1933 16.394 9.764 16.302ZM6.13 18.096C5.854 17.8507 5.60867 17.728 5.394 17.728C5.21 17.6973 4.96467 17.7893 4.658 18.004C4.32067 18.2187 4.09067 18.418 3.968 18.602C3.876 18.7553 3.876 19.0313 3.968 19.43C4.09067 19.89 4.21333 20.2427 4.336 20.488C4.45867 20.7027 4.76533 20.8253 5.256 20.856C5.74667 20.8867 6.06867 20.81 6.222 20.626C6.406 20.4113 6.59 20.074 6.774 19.614C6.92733 19.2153 6.92733 18.924 6.774 18.74C6.65133 18.556 6.43667 18.3413 6.13 18.096ZM3.692 23.156C3.53867 23.0333 3.37 23.0333 3.186 23.156C3.094 23.248 3.01733 23.3247 2.956 23.386C2.89467 23.4473 2.89467 23.5393 2.956 23.662C3.01733 23.8767 3.186 23.984 3.462 23.984C3.67667 23.984 3.83 23.8613 3.922 23.616C3.95267 23.432 3.876 23.2787 3.692 23.156ZM21.954 24.858C21.77 24.4593 21.6013 24.1987 21.448 24.076C21.2947 23.9227 21.0187 23.8613 20.62 23.892C20.16 23.9533 19.838 24.0607 19.654 24.214C19.47 24.3367 19.332 24.6127 19.24 25.042C19.1173 25.502 19.0867 25.8547 19.148 26.1C19.24 26.3453 19.5007 26.5907 19.93 26.836C20.3287 27.0813 20.6353 27.158 20.85 27.066C21.0953 26.9433 21.3867 26.7287 21.724 26.422C22 26.146 22.138 25.916 22.138 25.732C22.1687 25.5173 22.1073 25.226 21.954 24.858ZM8.89 25.18C8.64467 25.18 8.476 25.226 8.384 25.318C8.292 25.3793 8.2 25.5327 8.108 25.778C8.016 26.054 7.95467 26.2687 7.924 26.422C7.924 26.5753 8.03133 26.7287 8.246 26.882C8.522 27.0967 8.73667 27.2347 8.89 27.296C9.074 27.3267 9.304 27.25 9.58 27.066C9.88667 26.882 10.0553 26.698 10.086 26.514C10.1167 26.33 10.086 26.0693 9.994 25.732C9.902 25.4253 9.764 25.2567 9.58 25.226C9.42667 25.1953 9.19667 25.18 8.89 25.18ZM26.416 26.376L26.278 25.732L25.542 26.008L25.634 26.744H26.232L26.416 26.376ZM14.272 26.514C14.1187 26.4527 13.996 26.3913 13.904 26.33C13.812 26.2687 13.7047 26.3147 13.582 26.468C13.3673 26.7133 13.3673 26.974 13.582 27.25C13.674 27.4033 13.766 27.4647 13.858 27.434C13.95 27.3727 14.0727 27.3267 14.226 27.296C14.3793 27.2347 14.4867 27.1887 14.548 27.158C14.64 27.1273 14.686 27.0353 14.686 26.882C14.686 26.7593 14.6553 26.6827 14.594 26.652C14.5327 26.5907 14.4253 26.5447 14.272 26.514ZM16.71 27.894C16.4033 27.71 16.1273 27.7253 15.882 27.94C15.7593 28.0627 15.7133 28.1853 15.744 28.308C15.7747 28.4 15.836 28.538 15.928 28.722C16.02 28.9367 16.1887 29.0287 16.434 28.998C16.6793 28.9673 16.8327 28.8293 16.894 28.584C16.9247 28.4 16.94 28.262 16.94 28.17C16.94 28.078 16.8633 27.986 16.71 27.894ZM22.598 27.756C22.2607 27.7253 22.0153 27.7867 21.862 27.94C21.7393 28.0627 21.6167 28.2773 21.494 28.584C21.3713 28.8293 21.3713 29.0133 21.494 29.136C21.6473 29.228 21.8313 29.366 22.046 29.55C22.1993 29.7033 22.3373 29.7953 22.46 29.826C22.5827 29.8567 22.7513 29.8107 22.966 29.688C23.2113 29.5347 23.3953 29.412 23.518 29.32C23.6407 29.1973 23.656 28.998 23.564 28.722C23.5027 28.3847 23.4107 28.1547 23.288 28.032C23.1653 27.8787 22.9353 27.7867 22.598 27.756ZM25.45 28.308C25.3273 28.216 25.22 28.1393 25.128 28.078C25.0667 28.0167 24.9747 28.032 24.852 28.124C24.668 28.2773 24.6373 28.5073 24.76 28.814C24.8213 28.998 24.99 29.09 25.266 29.09C25.45 29.09 25.588 29.09 25.68 29.09C25.772 29.0593 25.8333 28.9673 25.864 28.814C25.9253 28.6607 25.91 28.5687 25.818 28.538C25.726 28.4767 25.6033 28.4 25.45 28.308ZM13.168 30.286C12.8307 30.1633 12.5547 30.2247 12.34 30.47C12.248 30.6233 12.2173 30.746 12.248 30.838C12.3093 30.93 12.386 31.068 12.478 31.252C12.662 31.528 12.8767 31.62 13.122 31.528C13.4287 31.4667 13.582 31.2673 13.582 30.93C13.582 30.5927 13.444 30.378 13.168 30.286ZM20.666 30.654C20.5127 30.4087 20.3287 30.3013 20.114 30.332C19.8993 30.3933 19.7307 30.4393 19.608 30.47C19.4853 30.5007 19.4087 30.6233 19.378 30.838C19.3473 31.0833 19.378 31.2673 19.47 31.39C19.562 31.482 19.7153 31.574 19.93 31.666C20.1753 31.758 20.3593 31.804 20.482 31.804C20.6047 31.7733 20.7427 31.666 20.896 31.482C21.0493 31.3287 21.08 31.206 20.988 31.114C20.896 30.9913 20.7887 30.838 20.666 30.654ZM36.5083 33C36.171 33 35.8797 32.8927 35.6343 32.678C35.389 32.4327 35.2663 32.126 35.2663 31.758V2.042C35.2663 1.70467 35.389 1.41333 35.6343 1.168C35.8797 0.922665 36.171 0.799998 36.5083 0.799998H45.5243C45.8617 0.799998 46.153 0.922665 46.3983 1.168C46.6437 1.41333 46.7663 1.70467 46.7663 2.042V11.702H54.2183V2.042C54.2183 1.70467 54.341 1.41333 54.5863 1.168C54.8317 0.922665 55.123 0.799998 55.4603 0.799998H64.4763C64.8137 0.799998 65.105 0.922665 65.3503 1.168C65.5957 1.41333 65.7183 1.70467 65.7183 2.042V31.758C65.7183 32.0953 65.5957 32.3867 65.3503 32.632C65.105 32.8773 64.8137 33 64.4763 33H55.4603C55.123 33 54.8317 32.8773 54.5863 32.632C54.341 32.3867 54.2183 32.0953 54.2183 31.758V21.822H46.7663V31.758C46.7663 32.0953 46.6437 32.3867 46.3983 32.632C46.153 32.8773 45.8617 33 45.5243 33H36.5083ZM63.2803 2.364C63.0043 2.272 62.8203 2.318 62.7283 2.502C62.6363 2.65533 62.5137 2.85466 62.3603 3.1C62.207 3.34533 62.0997 3.54467 62.0383 3.698C61.977 3.82067 62.023 3.98933 62.1763 4.204C62.3603 4.41867 62.529 4.49533 62.6823 4.434C62.8357 4.37267 63.035 4.296 63.2803 4.204C63.5563 4.08133 63.7863 4.00466 63.9703 3.974C64.185 3.91267 64.277 3.72867 64.2463 3.422C64.2157 3.054 64.139 2.80867 64.0163 2.686C63.8937 2.56333 63.6483 2.456 63.2803 2.364ZM41.8903 3.376C41.5223 2.85467 41.1697 2.548 40.8323 2.456C40.5257 2.33333 40.0657 2.364 39.4523 2.548C38.8083 2.76266 38.3483 2.99267 38.0723 3.238C37.7963 3.45267 37.6583 3.89733 37.6583 4.572C37.6583 5.18533 37.827 5.538 38.1643 5.63C38.5323 5.722 39.0077 5.86 39.5903 6.044C40.0503 6.19733 40.403 6.274 40.6483 6.274C40.9243 6.24333 41.2003 6.044 41.4763 5.676C41.8443 5.216 42.0743 4.848 42.1663 4.572C42.289 4.26533 42.197 3.86667 41.8903 3.376ZM57.7143 4.388C57.561 4.23467 57.423 4.18867 57.3003 4.25C57.1777 4.28067 57.009 4.35733 56.7943 4.48C56.6103 4.572 56.4877 4.664 56.4263 4.756C56.365 4.848 56.3497 4.986 56.3803 5.17C56.411 5.354 56.4877 5.46133 56.6103 5.492C56.733 5.492 56.8863 5.50733 57.0703 5.538C57.2543 5.56867 57.4077 5.59933 57.5303 5.63C57.653 5.63 57.745 5.538 57.8063 5.354C57.929 5.13933 57.9903 4.97066 57.9903 4.848C57.9903 4.72533 57.8983 4.572 57.7143 4.388ZM59.8303 5.584L59.3703 5.492L59.0023 5.676L59.0943 6.182L59.5543 5.998L59.8303 5.584ZM64.3383 6.136C64.2463 5.89067 64.1237 5.768 63.9703 5.768C63.8477 5.768 63.6637 5.768 63.4183 5.768C63.173 5.768 62.9737 5.768 62.8203 5.768C62.6977 5.768 62.5903 5.89067 62.4983 6.136C62.4063 6.38133 62.391 6.56533 62.4523 6.688C62.5443 6.78 62.6977 6.918 62.9123 7.102C63.127 7.22467 63.2803 7.27067 63.3723 7.24C63.495 7.20933 63.6483 7.13267 63.8323 7.01C64.047 6.85667 64.2003 6.734 64.2923 6.642C64.415 6.51933 64.4303 6.35067 64.3383 6.136ZM56.0123 6.596L55.5523 6.78L55.8283 7.194L56.1963 7.286L56.5643 6.826L56.0123 6.596ZM45.6163 7.102L45.4783 6.734L45.1563 6.964L45.1103 7.332L45.5243 7.424L45.6163 7.102ZM40.8783 8.712C40.633 8.62 40.449 8.62 40.3263 8.712C40.2343 8.804 40.1117 8.942 39.9583 9.126C39.7743 9.43267 39.7897 9.73933 40.0043 10.046C40.1577 10.23 40.2803 10.368 40.3723 10.46C40.495 10.552 40.679 10.552 40.9243 10.46C41.2003 10.368 41.3997 10.276 41.5223 10.184C41.645 10.0613 41.7063 9.862 41.7063 9.586C41.7063 9.27933 41.6297 9.08 41.4763 8.988C41.3537 8.896 41.1543 8.804 40.8783 8.712ZM61.0263 10.138C60.137 9.92333 59.493 9.98467 59.0943 10.322C58.7263 10.6593 58.3123 11.2267 57.8523 12.024C57.423 12.76 57.2083 13.358 57.2083 13.818C57.2083 14.278 57.4997 14.83 58.0823 15.474C58.665 16.118 59.171 16.4553 59.6003 16.486C60.0603 16.486 60.6737 16.3173 61.4403 15.98C62.1763 15.6427 62.6363 15.29 62.8203 14.922C63.035 14.554 63.1117 13.9713 63.0503 13.174C62.9583 12.254 62.8203 11.564 62.6363 11.104C62.4523 10.644 61.9157 10.322 61.0263 10.138ZM44.3743 10.46C44.037 10.46 43.8377 10.5673 43.7763 10.782C43.6843 11.0273 43.623 11.2113 43.5923 11.334C43.5617 11.4567 43.6383 11.5947 43.8223 11.748C44.037 11.9013 44.2057 11.978 44.3283 11.978C44.451 11.9473 44.6197 11.8553 44.8343 11.702C45.0183 11.5487 45.1103 11.426 45.1103 11.334C45.141 11.2113 45.1257 11.0273 45.0643 10.782C45.003 10.598 44.911 10.506 44.7883 10.506C44.6963 10.4753 44.5583 10.46 44.3743 10.46ZM41.2923 11.932C41.231 11.6867 41.1237 11.564 40.9703 11.564C40.7863 11.5333 40.6483 11.6253 40.5563 11.84C40.4643 12.0547 40.4797 12.2387 40.6023 12.392C40.7557 12.484 40.863 12.5607 40.9243 12.622C41.0163 12.6833 41.1237 12.668 41.2463 12.576C41.3997 12.484 41.4457 12.392 41.3843 12.3C41.3537 12.208 41.323 12.0853 41.2923 11.932ZM45.8463 13.312L45.2483 13.45L45.2023 13.864L45.5243 14.14L46.0763 13.91L45.8463 13.312ZM55.1383 14.554C55.0157 14.3087 54.893 14.1553 54.7703 14.094C54.6477 14.002 54.433 13.956 54.1263 13.956C53.8197 13.956 53.5897 14.002 53.4363 14.094C53.3137 14.1553 53.2063 14.324 53.1143 14.6C53.0223 14.9373 52.9917 15.198 53.0223 15.382C53.053 15.566 53.2063 15.75 53.4823 15.934C53.7277 16.118 53.9117 16.1487 54.0343 16.026C54.1877 15.8727 54.387 15.704 54.6323 15.52C54.847 15.336 55.0003 15.198 55.0923 15.106C55.215 15.014 55.2303 14.83 55.1383 14.554ZM40.4643 14.554C40.0043 14.5233 39.621 14.4773 39.3143 14.416C39.0383 14.3547 38.8237 14.5387 38.6703 14.968C38.4863 15.52 38.4097 15.9493 38.4403 16.256C38.471 16.532 38.7163 16.854 39.1763 17.222C39.575 17.5287 39.8817 17.5593 40.0963 17.314C40.311 17.0687 40.6177 16.808 41.0163 16.532C41.323 16.3173 41.5223 16.1333 41.6143 15.98C41.737 15.8267 41.7523 15.5813 41.6603 15.244C41.5683 14.9067 41.4303 14.7073 41.2463 14.646C41.0623 14.5847 40.8017 14.554 40.4643 14.554ZM51.9643 16.164C51.719 15.4893 51.4277 15.0753 51.0903 14.922C50.753 14.7687 50.2317 14.7073 49.5263 14.738C48.9437 14.7687 48.6063 14.9527 48.5143 15.29C48.453 15.6273 48.3457 16.072 48.1923 16.624C48.039 17.2373 47.8857 17.728 47.7323 18.096C47.6097 18.4333 47.809 18.7553 48.3303 19.062C48.9437 19.4607 49.4343 19.6753 49.8023 19.706C50.201 19.706 50.6917 19.476 51.2743 19.016C51.8263 18.556 52.1483 18.142 52.2403 17.774C52.3323 17.3753 52.2403 16.8387 51.9643 16.164ZM43.9603 19.062C43.899 18.9087 43.853 18.786 43.8223 18.694C43.7917 18.602 43.6843 18.556 43.5003 18.556C43.255 18.556 43.0863 18.7093 42.9943 19.016C42.8717 19.292 42.9177 19.5067 43.1323 19.66C43.3163 19.8133 43.531 19.798 43.7763 19.614C43.9603 19.4913 44.0217 19.3073 43.9603 19.062ZM54.4023 19.062C54.2183 18.9087 54.065 18.786 53.9423 18.694C53.8197 18.602 53.651 18.6173 53.4363 18.74C53.191 18.8627 53.0683 19.0007 53.0683 19.154C53.099 19.2767 53.1297 19.476 53.1603 19.752C53.2217 20.12 53.4363 20.3347 53.8043 20.396C54.1723 20.4573 54.433 20.304 54.5863 19.936C54.7397 19.6293 54.6783 19.338 54.4023 19.062ZM38.8083 18.832L38.2563 18.786L37.9343 19.154L38.2563 19.614L38.7623 19.43L38.8083 18.832ZM60.7043 19.338L60.2443 19.384L60.2903 19.798L60.5663 19.936L60.8423 19.706L60.7043 19.338ZM41.2923 20.626L40.8323 20.304L40.4643 20.626L40.6023 20.994L41.1083 21.27L41.2923 20.626ZM37.6123 22.696L37.2903 22.604L37.0143 22.788L37.1983 23.064L37.6123 23.11V22.696ZM60.6123 22.696H60.1983L60.1063 23.11L60.5203 23.202L60.7503 22.972L60.6123 22.696ZM62.8663 23.57C62.6517 23.294 62.3757 23.2173 62.0383 23.34C61.701 23.4627 61.5477 23.708 61.5783 24.076C61.5783 24.26 61.6243 24.398 61.7163 24.49C61.8083 24.5513 61.9463 24.6127 62.1303 24.674C62.3757 24.7353 62.5903 24.628 62.7743 24.352C62.8663 24.168 62.9277 24.03 62.9583 23.938C63.0197 23.846 62.989 23.7233 62.8663 23.57ZM39.8663 23.708C39.437 23.6467 39.0843 23.6007 38.8083 23.57C38.5323 23.5087 38.3023 23.6773 38.1183 24.076C37.873 24.5667 37.7657 24.95 37.7963 25.226C37.827 25.502 38.0417 25.824 38.4403 26.192C38.747 26.5293 39.0077 26.606 39.2223 26.422C39.4677 26.2073 39.805 25.9927 40.2343 25.778C40.5103 25.6247 40.6943 25.4867 40.7863 25.364C40.8783 25.2107 40.909 24.9807 40.8783 24.674C40.817 24.3367 40.7097 24.1067 40.5563 23.984C40.4337 23.8613 40.2037 23.7693 39.8663 23.708ZM59.0483 25.41C58.3737 25.3487 57.8217 25.2873 57.3923 25.226C56.9937 25.1647 56.6717 25.4407 56.4263 26.054C56.089 26.8513 55.9203 27.48 55.9203 27.94C55.9203 28.3693 56.2423 28.8753 56.8863 29.458C57.4997 29.9793 58.0057 30.148 58.4043 29.964C58.8337 29.78 59.401 29.4887 60.1063 29.09C60.7197 28.6913 61.149 28.3387 61.3943 28.032C61.6703 27.7253 61.7163 27.2193 61.5323 26.514C61.379 25.8393 61.0877 25.502 60.6583 25.502C60.2597 25.502 59.723 25.4713 59.0483 25.41ZM43.5923 25.962C43.4083 25.9007 43.255 25.9007 43.1323 25.962C43.0403 26.0233 42.933 26.1307 42.8103 26.284C42.6877 26.468 42.5957 26.606 42.5343 26.698C42.5037 26.79 42.5497 26.928 42.6723 27.112C42.887 27.4493 43.1783 27.572 43.5463 27.48C43.7303 27.4493 43.807 27.3727 43.7763 27.25C43.7763 27.0967 43.7763 26.928 43.7763 26.744C43.7763 26.5293 43.7917 26.3607 43.8223 26.238C43.853 26.1153 43.7763 26.0233 43.5923 25.962ZM63.5563 27.802C63.3723 27.7407 63.2343 27.756 63.1423 27.848C63.0503 27.9093 62.943 28.0167 62.8203 28.17C62.667 28.354 62.529 28.492 62.4063 28.584C62.2837 28.676 62.2837 28.8293 62.4063 29.044C62.6517 29.4427 63.0043 29.5807 63.4643 29.458C63.7403 29.3967 63.909 29.32 63.9703 29.228C64.0623 29.1053 64.1237 28.906 64.1543 28.63C64.185 28.3847 64.139 28.216 64.0163 28.124C63.9243 28.032 63.771 27.9247 63.5563 27.802ZM43.0863 29.458C42.933 29.182 42.7643 29.044 42.5803 29.044C42.427 29.0133 42.197 29.044 41.8903 29.136C41.645 29.1667 41.4917 29.2587 41.4303 29.412C41.369 29.5347 41.323 29.7187 41.2923 29.964C41.2617 30.3627 41.2003 30.6847 41.1083 30.93C41.047 31.1447 41.185 31.3133 41.5223 31.436C41.8597 31.5893 42.0897 31.574 42.2123 31.39C42.3657 31.1753 42.565 30.93 42.8103 30.654C43.025 30.4393 43.163 30.2553 43.2243 30.102C43.3163 29.9487 43.2703 29.734 43.0863 29.458ZM72.0415 33C71.7042 33 71.4129 32.8773 71.1675 32.632C70.9222 32.3867 70.7995 32.0953 70.7995 31.758V2.042C70.7995 1.70467 70.9222 1.41333 71.1675 1.168C71.4129 0.922665 71.7042 0.799998 72.0415 0.799998H81.4255C81.7629 0.799998 82.0542 0.922665 82.2995 1.168C82.5449 1.41333 82.6675 1.70467 82.6675 2.042V31.758C82.6675 32.0953 82.5449 32.3867 82.2995 32.632C82.0542 32.8773 81.7629 33 81.4255 33H72.0415ZM76.7795 2.042C76.4729 2.01133 76.2429 2.042 76.0895 2.134C75.9669 2.226 75.8442 2.41 75.7215 2.686C75.5989 2.962 75.5682 3.16133 75.6295 3.284C75.7215 3.40667 75.8902 3.56 76.1355 3.744C76.3809 3.95867 76.5649 4.14267 76.6875 4.296C76.8409 4.41867 77.0555 4.388 77.3315 4.204C77.6382 4.02 77.7762 3.836 77.7455 3.652C77.7149 3.468 77.6535 3.22266 77.5615 2.916C77.5002 2.60933 77.4235 2.39466 77.3315 2.272C77.2395 2.14933 77.0555 2.07266 76.7795 2.042ZM73.5595 2.732L73.1455 2.778L73.2375 3.238H73.6515L73.5595 2.732ZM75.0315 4.986L74.5255 4.848L74.4335 5.492L74.9855 5.814L75.3995 5.354L75.0315 4.986ZM77.9295 5.63C77.8682 5.50733 77.8222 5.41533 77.7915 5.354C77.7609 5.262 77.6689 5.216 77.5155 5.216C77.2395 5.24666 77.0709 5.41533 77.0095 5.722C76.9789 5.84466 76.9942 5.93667 77.0555 5.998C77.1475 6.02867 77.2549 6.07467 77.3775 6.136C77.5002 6.19733 77.5922 6.25867 77.6535 6.32C77.7455 6.35066 77.8375 6.32 77.9295 6.228C78.0522 6.136 78.0982 6.05933 78.0675 5.998C78.0369 5.906 77.9909 5.78333 77.9295 5.63ZM73.4675 6.228L73.2375 5.952L72.7775 6.044L73.0075 6.412L73.3755 6.688L73.4675 6.228ZM81.1955 7.148L80.7355 7.24L80.8735 7.746L81.3795 7.884L81.5635 7.424L81.1955 7.148ZM73.5595 8.344L73.2835 8.16L72.8695 8.298L73.0075 8.804H73.5595V8.344ZM77.5615 9.172C77.3469 8.988 77.1015 8.988 76.8255 9.172C76.6722 9.264 76.5495 9.356 76.4575 9.448C76.3962 9.54 76.3809 9.678 76.4115 9.862C76.5342 10.23 76.7642 10.4293 77.1015 10.46C77.3162 10.46 77.4542 10.4293 77.5155 10.368C77.5769 10.276 77.6535 10.1227 77.7455 9.908C77.8682 9.632 77.8069 9.38667 77.5615 9.172ZM74.4795 9.494L74.1115 9.172L73.8815 9.586V9.954H74.3415L74.4795 9.494ZM80.9655 10.92L80.4135 11.104L80.6435 11.564L81.0115 11.656L81.3335 11.334L80.9655 10.92ZM73.1455 12.162L72.5935 11.794L72.1335 12.162L72.3635 12.668L72.8695 12.714L73.1455 12.162ZM79.5855 12.668C79.5549 12.392 79.4629 12.2233 79.3095 12.162C79.1869 12.1007 78.9875 12.0393 78.7115 11.978C78.4969 11.9473 78.3435 11.978 78.2515 12.07C78.1902 12.162 78.1135 12.3 78.0215 12.484C77.9295 12.668 77.8682 12.8213 77.8375 12.944C77.8375 13.036 77.8989 13.1587 78.0215 13.312C78.2055 13.496 78.3435 13.6187 78.4355 13.68C78.5582 13.7413 78.7269 13.7107 78.9415 13.588C79.1869 13.4653 79.3555 13.358 79.4475 13.266C79.5702 13.1433 79.6162 12.944 79.5855 12.668ZM75.9055 13.496C75.4455 13.3733 75.0929 13.3733 74.8475 13.496C74.6329 13.6187 74.3875 13.8793 74.1115 14.278C73.8969 14.646 73.8355 14.9373 73.9275 15.152C74.0502 15.3667 74.2495 15.6273 74.5255 15.934C74.8015 16.2713 75.0315 16.5013 75.2155 16.624C75.3995 16.7467 75.6755 16.7313 76.0435 16.578C76.5342 16.3633 76.9022 16.1793 77.1475 16.026C77.4235 15.8727 77.5462 15.5353 77.5155 15.014C77.4849 14.462 77.3315 14.1093 77.0555 13.956C76.8102 13.772 76.4269 13.6187 75.9055 13.496ZM80.0455 14.6L79.7235 14.646L79.4935 15.014L79.9535 15.198L80.3675 14.922L80.0455 14.6ZM73.8355 18.74C73.5595 18.7093 73.4062 18.786 73.3755 18.97C73.3449 19.1233 73.2835 19.3227 73.1915 19.568C73.0995 19.8133 73.0075 20.0127 72.9155 20.166C72.8542 20.2887 72.9155 20.4267 73.0995 20.58C73.2835 20.7333 73.4369 20.764 73.5595 20.672C73.6822 20.5493 73.8509 20.4267 74.0655 20.304C74.2802 20.1813 74.4642 20.0893 74.6175 20.028C74.7709 19.9667 74.8169 19.798 74.7555 19.522C74.6942 19.246 74.6022 19.062 74.4795 18.97C74.3569 18.8473 74.1422 18.7707 73.8355 18.74ZM76.9175 19.108L76.4575 19.2L76.6875 19.66L77.1935 19.798L77.3315 19.292L76.9175 19.108ZM81.1955 21.454L80.8735 21.224L80.7355 21.592L80.9195 22.006L81.2415 21.73L81.1955 21.454ZM77.1015 21.96C76.8869 21.7453 76.6262 21.7147 76.3195 21.868C76.0129 22.0213 75.8902 22.2667 75.9515 22.604C76.0129 22.9413 76.2122 23.1407 76.5495 23.202C76.7949 23.2327 76.9789 23.248 77.1015 23.248C77.2242 23.2173 77.3469 23.0947 77.4695 22.88C77.5615 22.6653 77.5615 22.512 77.4695 22.42C77.4082 22.2973 77.2855 22.144 77.1015 21.96ZM80.5055 23.57C80.1069 23.294 79.7235 23.294 79.3555 23.57C79.1409 23.7233 79.0182 23.8767 78.9875 24.03C78.9875 24.1527 79.0335 24.3367 79.1255 24.582C79.2175 24.8887 79.2942 25.134 79.3555 25.318C79.4169 25.4713 79.6009 25.548 79.9075 25.548C80.2449 25.548 80.4902 25.502 80.6435 25.41C80.8275 25.318 80.9809 25.1033 81.1035 24.766C81.1955 24.4593 81.1802 24.2447 81.0575 24.122C80.9349 23.9687 80.7509 23.7847 80.5055 23.57ZM74.1575 23.662C73.9122 23.57 73.7129 23.5547 73.5595 23.616C73.4369 23.6467 73.2989 23.7693 73.1455 23.984C73.0229 24.1987 72.9922 24.3673 73.0535 24.49C73.1149 24.582 73.2222 24.72 73.3755 24.904C73.5595 25.1187 73.6975 25.3027 73.7895 25.456C73.8815 25.5787 74.0502 25.5787 74.2955 25.456C74.6022 25.364 74.7862 25.2567 74.8475 25.134C74.9395 24.9807 74.9855 24.7507 74.9855 24.444C74.9549 24.1373 74.8782 23.9533 74.7555 23.892C74.6329 23.8 74.4335 23.7233 74.1575 23.662ZM77.2855 26.008L76.9635 25.87L76.7335 26.238L77.0095 26.606L77.4695 26.376L77.2855 26.008ZM75.7215 26.882L75.3535 26.606L74.9395 26.882L75.0775 27.434L75.5375 27.296L75.7215 26.882ZM73.7895 27.848C73.7895 27.572 73.7589 27.3727 73.6975 27.25C73.6362 27.0967 73.4675 26.974 73.1915 26.882C72.9769 26.8207 72.8389 26.8667 72.7775 27.02C72.7162 27.1427 72.6089 27.3113 72.4555 27.526C72.3022 27.7407 72.3022 27.9553 72.4555 28.17C72.6089 28.354 72.7162 28.492 72.7775 28.584C72.8389 28.676 72.9769 28.6913 73.1915 28.63C73.4369 28.538 73.5902 28.446 73.6515 28.354C73.7435 28.262 73.7895 28.0933 73.7895 27.848ZM80.0455 27.02C79.8615 26.9893 79.7235 27.0967 79.6315 27.342C79.5395 27.5567 79.5549 27.7253 79.6775 27.848C79.8002 27.9707 79.9689 27.9707 80.1835 27.848C80.3062 27.7867 80.3982 27.7407 80.4595 27.71C80.5515 27.6487 80.5822 27.5567 80.5515 27.434C80.4902 27.1887 80.3215 27.0507 80.0455 27.02ZM76.9635 28.538L76.6875 28.17L76.2275 28.446L76.3655 28.952L76.8255 28.906L76.9635 28.538ZM77.3315 30.746C77.3009 30.5313 77.2549 30.378 77.1935 30.286C77.1629 30.1633 77.0402 30.0713 76.8255 30.01C76.5802 29.9793 76.3962 29.9793 76.2735 30.01C76.1509 30.0407 76.0282 30.1633 75.9055 30.378C75.7829 30.5927 75.7829 30.746 75.9055 30.838C76.0282 30.8993 76.1662 31.0067 76.3195 31.16C76.4115 31.2827 76.4882 31.3747 76.5495 31.436C76.6415 31.4973 76.7642 31.4973 76.9175 31.436C77.2242 31.2827 77.3622 31.0527 77.3315 30.746ZM81.2415 30.47C81.1495 30.2553 81.0269 30.1633 80.8735 30.194C80.7202 30.2247 80.5209 30.2553 80.2755 30.286C80.0609 30.3167 79.8922 30.3473 79.7695 30.378C79.6775 30.4087 79.6009 30.5313 79.5395 30.746C79.5089 31.022 79.4935 31.2367 79.4935 31.39C79.4935 31.5433 79.6162 31.6813 79.8615 31.804C80.0762 31.9267 80.2295 31.9267 80.3215 31.804C80.4135 31.6507 80.5515 31.482 80.7355 31.298C80.9195 31.114 81.0729 30.9913 81.1955 30.93C81.3182 30.838 81.3335 30.6847 81.2415 30.47ZM88.9771 33C88.6397 33 88.3484 32.8773 88.1031 32.632C87.8577 32.3867 87.7351 32.0953 87.7351 31.758V2.042C87.7351 1.70467 87.8577 1.41333 88.1031 1.168C88.3484 0.922665 88.6397 0.799998 88.9771 0.799998H98.1771C98.5144 0.799998 98.8057 0.922665 99.0511 1.168C99.2964 1.41333 99.4191 1.70467 99.4191 2.042V23.57H112.161C112.498 23.57 112.79 23.6927 113.035 23.938C113.28 24.1833 113.403 24.4747 113.403 24.812V31.758C113.403 32.0953 113.28 32.3867 113.035 32.632C112.79 32.8773 112.498 33 112.161 33H88.9771ZM94.2211 3.606L93.8991 4.066V4.572L94.4511 4.48L94.6351 4.066L94.2211 3.606ZM90.6791 4.526C90.3417 4.40333 90.0657 4.296 89.8511 4.204C89.6671 4.08133 89.4677 4.17333 89.2531 4.48C89.0384 4.756 89.0077 4.986 89.1611 5.17C89.3144 5.32333 89.4984 5.55333 89.7131 5.86C89.8664 6.07467 90.0044 6.21267 90.1271 6.274C90.2804 6.33533 90.4951 6.32 90.7711 6.228C91.0164 6.136 91.1697 6.02866 91.2311 5.906C91.2924 5.78333 91.3231 5.584 91.3231 5.308C91.3231 5.06267 91.2771 4.894 91.1851 4.802C91.0931 4.67933 90.9244 4.58733 90.6791 4.526ZM93.8531 5.998L93.6231 5.492L93.1171 5.768L93.0711 6.274L93.5771 6.412L93.8531 5.998ZM95.4171 5.584C95.1411 5.55333 94.9571 5.63 94.8651 5.814C94.8037 5.93667 94.7884 6.044 94.8191 6.136C94.8804 6.19733 94.9724 6.274 95.0951 6.366C95.2791 6.51933 95.4631 6.56533 95.6471 6.504C95.8004 6.412 95.9077 6.33533 95.9691 6.274C96.0611 6.21267 96.0917 6.09 96.0611 5.906C95.9997 5.722 95.9231 5.63 95.8311 5.63C95.7391 5.63 95.6011 5.61467 95.4171 5.584ZM97.8091 6.688L97.1191 6.596L96.7511 7.148L97.2111 7.7L97.8551 7.424L97.8091 6.688ZM93.6231 9.356C93.2857 9.01867 92.9944 8.896 92.7491 8.988C92.5037 9.08 92.1664 9.23333 91.7371 9.448C91.3077 9.632 90.9704 9.80066 90.7251 9.954C90.5104 10.0767 90.4337 10.368 90.4951 10.828C90.5564 11.288 90.6944 11.5793 90.9091 11.702C91.1544 11.8247 91.5224 11.932 92.0131 12.024C92.4117 12.116 92.6877 12.1007 92.8411 11.978C92.9944 11.8247 93.1784 11.564 93.3931 11.196C93.6077 10.7973 93.7764 10.4753 93.8991 10.23C94.0217 9.98467 93.9297 9.69333 93.6231 9.356ZM96.7971 10.322C96.6744 10.1993 96.5671 10.1227 96.4751 10.092C96.4137 10.0307 96.3064 10.0307 96.1531 10.092C95.8464 10.2453 95.7084 10.4753 95.7391 10.782C95.8004 11.15 95.9844 11.3647 96.2911 11.426C96.4751 11.4567 96.5977 11.426 96.6591 11.334C96.7511 11.242 96.8431 11.1193 96.9351 10.966C97.0271 10.7513 96.9811 10.5367 96.7971 10.322ZM93.2091 13.91C92.9944 13.6647 92.7951 13.5573 92.6111 13.588C92.4271 13.588 92.1817 13.6647 91.8751 13.818C91.5684 13.9407 91.3231 14.0633 91.1391 14.186C90.9551 14.278 90.8784 14.508 90.9091 14.876C90.9397 15.2747 91.0164 15.566 91.1391 15.75C91.2617 15.934 91.5377 16.072 91.9671 16.164C92.3964 16.2867 92.7184 16.3173 92.9331 16.256C93.1784 16.1947 93.4237 15.9647 93.6691 15.566C93.8837 15.198 93.9297 14.922 93.8071 14.738C93.6844 14.5233 93.4851 14.2473 93.2091 13.91ZM98.3611 17.406L97.8091 17.176L97.3951 17.544L97.5791 18.142L98.1311 17.912L98.3611 17.406ZM92.7031 18.556C92.6417 18.2187 92.5497 17.9887 92.4271 17.866C92.3044 17.7433 92.0744 17.6667 91.7371 17.636C91.4304 17.6053 91.2311 17.682 91.1391 17.866C91.0777 18.0193 90.9857 18.234 90.8631 18.51C90.7711 18.7553 90.7404 18.9393 90.7711 19.062C90.8017 19.1847 90.9091 19.338 91.0931 19.522C91.2464 19.6447 91.3844 19.6753 91.5071 19.614C91.6297 19.5527 91.7831 19.4607 91.9671 19.338C92.1817 19.1847 92.3657 19.0927 92.5191 19.062C92.7031 19.0007 92.7644 18.832 92.7031 18.556ZM95.0031 20.764L94.5891 20.718L94.4511 21.086L94.7271 21.592L95.0951 21.178L95.0031 20.764ZM90.2191 21.96L89.9431 21.5L89.4371 21.776L89.3911 22.374L89.9431 22.328L90.2191 21.96ZM97.1651 24.674C97.1037 24.122 96.9044 23.8153 96.5671 23.754C96.2604 23.6927 95.8311 23.6007 95.2791 23.478C94.7884 23.3553 94.4051 23.294 94.1291 23.294C93.8531 23.294 93.5771 23.5087 93.3011 23.938C93.0251 24.4287 92.9024 24.8273 92.9331 25.134C92.9637 25.4407 93.1631 25.7933 93.5311 26.192C93.8991 26.5907 94.2211 26.8053 94.4971 26.836C94.8037 26.8667 95.2024 26.7747 95.6931 26.56C96.2451 26.3147 96.6437 26.0847 96.8891 25.87C97.1344 25.6553 97.2264 25.2567 97.1651 24.674ZM108.297 26.606C108.082 26.0233 107.822 25.686 107.515 25.594C107.208 25.4713 106.748 25.4253 106.135 25.456C105.46 25.4867 104.939 25.548 104.571 25.64C104.203 25.7013 103.927 26.0693 103.743 26.744C103.559 27.3573 103.636 27.756 103.973 27.94C104.341 28.124 104.801 28.3847 105.353 28.722C105.844 29.0593 106.227 29.32 106.503 29.504C106.81 29.6573 107.193 29.55 107.653 29.182C108.174 28.7527 108.466 28.3693 108.527 28.032C108.619 27.6947 108.542 27.2193 108.297 26.606ZM100.247 25.916C99.9404 25.7013 99.6337 25.732 99.3271 26.008C99.1124 26.1613 98.9744 26.2993 98.9131 26.422C98.8517 26.514 98.8671 26.6673 98.9591 26.882C99.0511 27.1273 99.1431 27.2807 99.2351 27.342C99.3577 27.4033 99.5571 27.434 99.8331 27.434C100.048 27.434 100.17 27.388 100.201 27.296C100.262 27.1733 100.324 27.0047 100.385 26.79C100.446 26.5753 100.477 26.4067 100.477 26.284C100.508 26.1613 100.431 26.0387 100.247 25.916ZM102.777 26.284C102.562 26.0387 102.302 25.9773 101.995 26.1C101.842 26.1613 101.765 26.2533 101.765 26.376C101.765 26.468 101.765 26.606 101.765 26.79C101.796 27.066 101.918 27.2347 102.133 27.296C102.348 27.3267 102.516 27.3727 102.639 27.434C102.792 27.4953 102.93 27.434 103.053 27.25C103.176 27.0353 103.206 26.8667 103.145 26.744C103.084 26.6213 102.961 26.468 102.777 26.284ZM111.241 26.698L111.011 26.376L110.551 26.56L110.735 26.928L111.057 27.02L111.241 26.698ZM111.471 28.124C111.41 27.94 111.318 27.848 111.195 27.848C111.103 27.848 110.98 27.848 110.827 27.848C110.612 27.848 110.459 27.9707 110.367 28.216C110.336 28.4 110.413 28.5533 110.597 28.676C110.75 28.7987 110.858 28.8907 110.919 28.952C111.011 29.0133 111.118 28.998 111.241 28.906C111.517 28.6913 111.594 28.4307 111.471 28.124ZM95.2331 28.4C94.9877 28.216 94.7884 28.124 94.6351 28.124C94.4817 28.0933 94.2671 28.1547 93.9911 28.308C93.7457 28.492 93.6077 28.676 93.5771 28.86C93.5771 29.0133 93.6231 29.228 93.7151 29.504C93.7764 29.7493 93.8837 29.8873 94.0371 29.918C94.1904 29.918 94.3897 29.918 94.6351 29.918C94.8804 29.918 95.0797 29.918 95.2331 29.918C95.3864 29.918 95.5091 29.7953 95.6011 29.55C95.6931 29.274 95.7084 29.0593 95.6471 28.906C95.6164 28.7527 95.4784 28.584 95.2331 28.4ZM99.1431 29.09C98.9591 28.814 98.7904 28.6607 98.6371 28.63C98.4837 28.5993 98.2537 28.63 97.9471 28.722C97.6404 28.814 97.4104 28.9213 97.2571 29.044C97.1344 29.136 97.0731 29.3353 97.0731 29.642C97.0731 29.9487 97.1497 30.148 97.3031 30.24C97.4564 30.3013 97.6711 30.378 97.9471 30.47C98.1924 30.562 98.3917 30.6233 98.5451 30.654C98.6984 30.654 98.8517 30.5467 99.0051 30.332C99.2197 30.0867 99.3424 29.8873 99.3731 29.734C99.4037 29.55 99.3271 29.3353 99.1431 29.09ZM102.731 28.814C102.455 28.6913 102.225 28.7527 102.041 28.998C101.826 29.2433 101.796 29.4733 101.949 29.688C102.041 29.8413 102.133 29.918 102.225 29.918C102.317 29.918 102.455 29.9027 102.639 29.872C102.884 29.78 103.022 29.6267 103.053 29.412C103.084 29.1053 102.976 28.906 102.731 28.814ZM110.873 30.102L110.597 29.872L110.183 30.056L110.413 30.47H110.827L110.873 30.102ZM96.2911 30.654L95.6931 30.746V31.252L96.0611 31.528L96.2911 31.16V30.654ZM117.772 33C117.435 33 117.143 32.8773 116.898 32.632C116.653 32.3867 116.53 32.0953 116.53 31.758V2.042C116.53 1.70467 116.653 1.41333 116.898 1.168C117.143 0.922665 117.435 0.799998 117.772 0.799998H126.972C127.309 0.799998 127.601 0.922665 127.846 1.168C128.091 1.41333 128.214 1.70467 128.214 2.042V23.57H140.956C141.293 23.57 141.585 23.6927 141.83 23.938C142.075 24.1833 142.198 24.4747 142.198 24.812V31.758C142.198 32.0953 142.075 32.3867 141.83 32.632C141.585 32.8773 141.293 33 140.956 33H117.772ZM123.016 3.606L122.694 4.066V4.572L123.246 4.48L123.43 4.066L123.016 3.606ZM119.474 4.526C119.137 4.40333 118.861 4.296 118.646 4.204C118.462 4.08133 118.263 4.17333 118.048 4.48C117.833 4.756 117.803 4.986 117.956 5.17C118.109 5.32333 118.293 5.55333 118.508 5.86C118.661 6.07467 118.799 6.21267 118.922 6.274C119.075 6.33533 119.29 6.32 119.566 6.228C119.811 6.136 119.965 6.02866 120.026 5.906C120.087 5.78333 120.118 5.584 120.118 5.308C120.118 5.06267 120.072 4.894 119.98 4.802C119.888 4.67933 119.719 4.58733 119.474 4.526ZM122.648 5.998L122.418 5.492L121.912 5.768L121.866 6.274L122.372 6.412L122.648 5.998ZM124.212 5.584C123.936 5.55333 123.752 5.63 123.66 5.814C123.599 5.93667 123.583 6.044 123.614 6.136C123.675 6.19733 123.767 6.274 123.89 6.366C124.074 6.51933 124.258 6.56533 124.442 6.504C124.595 6.412 124.703 6.33533 124.764 6.274C124.856 6.21267 124.887 6.09 124.856 5.906C124.795 5.722 124.718 5.63 124.626 5.63C124.534 5.63 124.396 5.61467 124.212 5.584ZM126.604 6.688L125.914 6.596L125.546 7.148L126.006 7.7L126.65 7.424L126.604 6.688ZM122.418 9.356C122.081 9.01867 121.789 8.896 121.544 8.988C121.299 9.08 120.961 9.23333 120.532 9.448C120.103 9.632 119.765 9.80066 119.52 9.954C119.305 10.0767 119.229 10.368 119.29 10.828C119.351 11.288 119.489 11.5793 119.704 11.702C119.949 11.8247 120.317 11.932 120.808 12.024C121.207 12.116 121.483 12.1007 121.636 11.978C121.789 11.8247 121.973 11.564 122.188 11.196C122.403 10.7973 122.571 10.4753 122.694 10.23C122.817 9.98467 122.725 9.69333 122.418 9.356ZM125.592 10.322C125.469 10.1993 125.362 10.1227 125.27 10.092C125.209 10.0307 125.101 10.0307 124.948 10.092C124.641 10.2453 124.503 10.4753 124.534 10.782C124.595 11.15 124.779 11.3647 125.086 11.426C125.27 11.4567 125.393 11.426 125.454 11.334C125.546 11.242 125.638 11.1193 125.73 10.966C125.822 10.7513 125.776 10.5367 125.592 10.322ZM122.004 13.91C121.789 13.6647 121.59 13.5573 121.406 13.588C121.222 13.588 120.977 13.6647 120.67 13.818C120.363 13.9407 120.118 14.0633 119.934 14.186C119.75 14.278 119.673 14.508 119.704 14.876C119.735 15.2747 119.811 15.566 119.934 15.75C120.057 15.934 120.333 16.072 120.762 16.164C121.191 16.2867 121.513 16.3173 121.728 16.256C121.973 16.1947 122.219 15.9647 122.464 15.566C122.679 15.198 122.725 14.922 122.602 14.738C122.479 14.5233 122.28 14.2473 122.004 13.91ZM127.156 17.406L126.604 17.176L126.19 17.544L126.374 18.142L126.926 17.912L127.156 17.406ZM121.498 18.556C121.437 18.2187 121.345 17.9887 121.222 17.866C121.099 17.7433 120.869 17.6667 120.532 17.636C120.225 17.6053 120.026 17.682 119.934 17.866C119.873 18.0193 119.781 18.234 119.658 18.51C119.566 18.7553 119.535 18.9393 119.566 19.062C119.597 19.1847 119.704 19.338 119.888 19.522C120.041 19.6447 120.179 19.6753 120.302 19.614C120.425 19.5527 120.578 19.4607 120.762 19.338C120.977 19.1847 121.161 19.0927 121.314 19.062C121.498 19.0007 121.559 18.832 121.498 18.556ZM123.798 20.764L123.384 20.718L123.246 21.086L123.522 21.592L123.89 21.178L123.798 20.764ZM119.014 21.96L118.738 21.5L118.232 21.776L118.186 22.374L118.738 22.328L119.014 21.96ZM125.96 24.674C125.899 24.122 125.699 23.8153 125.362 23.754C125.055 23.6927 124.626 23.6007 124.074 23.478C123.583 23.3553 123.2 23.294 122.924 23.294C122.648 23.294 122.372 23.5087 122.096 23.938C121.82 24.4287 121.697 24.8273 121.728 25.134C121.759 25.4407 121.958 25.7933 122.326 26.192C122.694 26.5907 123.016 26.8053 123.292 26.836C123.599 26.8667 123.997 26.7747 124.488 26.56C125.04 26.3147 125.439 26.0847 125.684 25.87C125.929 25.6553 126.021 25.2567 125.96 24.674ZM137.092 26.606C136.877 26.0233 136.617 25.686 136.31 25.594C136.003 25.4713 135.543 25.4253 134.93 25.456C134.255 25.4867 133.734 25.548 133.366 25.64C132.998 25.7013 132.722 26.0693 132.538 26.744C132.354 27.3573 132.431 27.756 132.768 27.94C133.136 28.124 133.596 28.3847 134.148 28.722C134.639 29.0593 135.022 29.32 135.298 29.504C135.605 29.6573 135.988 29.55 136.448 29.182C136.969 28.7527 137.261 28.3693 137.322 28.032C137.414 27.6947 137.337 27.2193 137.092 26.606ZM129.042 25.916C128.735 25.7013 128.429 25.732 128.122 26.008C127.907 26.1613 127.769 26.2993 127.708 26.422C127.647 26.514 127.662 26.6673 127.754 26.882C127.846 27.1273 127.938 27.2807 128.03 27.342C128.153 27.4033 128.352 27.434 128.628 27.434C128.843 27.434 128.965 27.388 128.996 27.296C129.057 27.1733 129.119 27.0047 129.18 26.79C129.241 26.5753 129.272 26.4067 129.272 26.284C129.303 26.1613 129.226 26.0387 129.042 25.916ZM131.572 26.284C131.357 26.0387 131.097 25.9773 130.79 26.1C130.637 26.1613 130.56 26.2533 130.56 26.376C130.56 26.468 130.56 26.606 130.56 26.79C130.591 27.066 130.713 27.2347 130.928 27.296C131.143 27.3267 131.311 27.3727 131.434 27.434C131.587 27.4953 131.725 27.434 131.848 27.25C131.971 27.0353 132.001 26.8667 131.94 26.744C131.879 26.6213 131.756 26.468 131.572 26.284ZM140.036 26.698L139.806 26.376L139.346 26.56L139.53 26.928L139.852 27.02L140.036 26.698ZM140.266 28.124C140.205 27.94 140.113 27.848 139.99 27.848C139.898 27.848 139.775 27.848 139.622 27.848C139.407 27.848 139.254 27.9707 139.162 28.216C139.131 28.4 139.208 28.5533 139.392 28.676C139.545 28.7987 139.653 28.8907 139.714 28.952C139.806 29.0133 139.913 28.998 140.036 28.906C140.312 28.6913 140.389 28.4307 140.266 28.124ZM124.028 28.4C123.783 28.216 123.583 28.124 123.43 28.124C123.277 28.0933 123.062 28.1547 122.786 28.308C122.541 28.492 122.403 28.676 122.372 28.86C122.372 29.0133 122.418 29.228 122.51 29.504C122.571 29.7493 122.679 29.8873 122.832 29.918C122.985 29.918 123.185 29.918 123.43 29.918C123.675 29.918 123.875 29.918 124.028 29.918C124.181 29.918 124.304 29.7953 124.396 29.55C124.488 29.274 124.503 29.0593 124.442 28.906C124.411 28.7527 124.273 28.584 124.028 28.4ZM127.938 29.09C127.754 28.814 127.585 28.6607 127.432 28.63C127.279 28.5993 127.049 28.63 126.742 28.722C126.435 28.814 126.205 28.9213 126.052 29.044C125.929 29.136 125.868 29.3353 125.868 29.642C125.868 29.9487 125.945 30.148 126.098 30.24C126.251 30.3013 126.466 30.378 126.742 30.47C126.987 30.562 127.187 30.6233 127.34 30.654C127.493 30.654 127.647 30.5467 127.8 30.332C128.015 30.0867 128.137 29.8873 128.168 29.734C128.199 29.55 128.122 29.3353 127.938 29.09ZM131.526 28.814C131.25 28.6913 131.02 28.7527 130.836 28.998C130.621 29.2433 130.591 29.4733 130.744 29.688C130.836 29.8413 130.928 29.918 131.02 29.918C131.112 29.918 131.25 29.9027 131.434 29.872C131.679 29.78 131.817 29.6267 131.848 29.412C131.879 29.1053 131.771 28.906 131.526 28.814ZM139.668 30.102L139.392 29.872L138.978 30.056L139.208 30.47H139.622L139.668 30.102ZM125.086 30.654L124.488 30.746V31.252L124.856 31.528L125.086 31.16V30.654ZM146.567 33C146.23 33 145.938 32.8773 145.693 32.632C145.448 32.3867 145.325 32.0953 145.325 31.758V2.042C145.325 1.70467 145.448 1.41333 145.693 1.168C145.938 0.922665 146.23 0.799998 146.567 0.799998H155.951C156.288 0.799998 156.58 0.922665 156.825 1.168C157.07 1.41333 157.193 1.70467 157.193 2.042V31.758C157.193 32.0953 157.07 32.3867 156.825 32.632C156.58 32.8773 156.288 33 155.951 33H146.567ZM151.305 2.042C150.998 2.01133 150.768 2.042 150.615 2.134C150.492 2.226 150.37 2.41 150.247 2.686C150.124 2.962 150.094 3.16133 150.155 3.284C150.247 3.40667 150.416 3.56 150.661 3.744C150.906 3.95867 151.09 4.14267 151.213 4.296C151.366 4.41867 151.581 4.388 151.857 4.204C152.164 4.02 152.302 3.836 152.271 3.652C152.24 3.468 152.179 3.22266 152.087 2.916C152.026 2.60933 151.949 2.39466 151.857 2.272C151.765 2.14933 151.581 2.07266 151.305 2.042ZM148.085 2.732L147.671 2.778L147.763 3.238H148.177L148.085 2.732ZM149.557 4.986L149.051 4.848L148.959 5.492L149.511 5.814L149.925 5.354L149.557 4.986ZM152.455 5.63C152.394 5.50733 152.348 5.41533 152.317 5.354C152.286 5.262 152.194 5.216 152.041 5.216C151.765 5.24666 151.596 5.41533 151.535 5.722C151.504 5.84466 151.52 5.93667 151.581 5.998C151.673 6.02867 151.78 6.07467 151.903 6.136C152.026 6.19733 152.118 6.25867 152.179 6.32C152.271 6.35066 152.363 6.32 152.455 6.228C152.578 6.136 152.624 6.05933 152.593 5.998C152.562 5.906 152.516 5.78333 152.455 5.63ZM147.993 6.228L147.763 5.952L147.303 6.044L147.533 6.412L147.901 6.688L147.993 6.228ZM155.721 7.148L155.261 7.24L155.399 7.746L155.905 7.884L156.089 7.424L155.721 7.148ZM148.085 8.344L147.809 8.16L147.395 8.298L147.533 8.804H148.085V8.344ZM152.087 9.172C151.872 8.988 151.627 8.988 151.351 9.172C151.198 9.264 151.075 9.356 150.983 9.448C150.922 9.54 150.906 9.678 150.937 9.862C151.06 10.23 151.29 10.4293 151.627 10.46C151.842 10.46 151.98 10.4293 152.041 10.368C152.102 10.276 152.179 10.1227 152.271 9.908C152.394 9.632 152.332 9.38667 152.087 9.172ZM149.005 9.494L148.637 9.172L148.407 9.586V9.954H148.867L149.005 9.494ZM155.491 10.92L154.939 11.104L155.169 11.564L155.537 11.656L155.859 11.334L155.491 10.92ZM147.671 12.162L147.119 11.794L146.659 12.162L146.889 12.668L147.395 12.714L147.671 12.162ZM154.111 12.668C154.08 12.392 153.988 12.2233 153.835 12.162C153.712 12.1007 153.513 12.0393 153.237 11.978C153.022 11.9473 152.869 11.978 152.777 12.07C152.716 12.162 152.639 12.3 152.547 12.484C152.455 12.668 152.394 12.8213 152.363 12.944C152.363 13.036 152.424 13.1587 152.547 13.312C152.731 13.496 152.869 13.6187 152.961 13.68C153.084 13.7413 153.252 13.7107 153.467 13.588C153.712 13.4653 153.881 13.358 153.973 13.266C154.096 13.1433 154.142 12.944 154.111 12.668ZM150.431 13.496C149.971 13.3733 149.618 13.3733 149.373 13.496C149.158 13.6187 148.913 13.8793 148.637 14.278C148.422 14.646 148.361 14.9373 148.453 15.152C148.576 15.3667 148.775 15.6273 149.051 15.934C149.327 16.2713 149.557 16.5013 149.741 16.624C149.925 16.7467 150.201 16.7313 150.569 16.578C151.06 16.3633 151.428 16.1793 151.673 16.026C151.949 15.8727 152.072 15.5353 152.041 15.014C152.01 14.462 151.857 14.1093 151.581 13.956C151.336 13.772 150.952 13.6187 150.431 13.496ZM154.571 14.6L154.249 14.646L154.019 15.014L154.479 15.198L154.893 14.922L154.571 14.6ZM148.361 18.74C148.085 18.7093 147.932 18.786 147.901 18.97C147.87 19.1233 147.809 19.3227 147.717 19.568C147.625 19.8133 147.533 20.0127 147.441 20.166C147.38 20.2887 147.441 20.4267 147.625 20.58C147.809 20.7333 147.962 20.764 148.085 20.672C148.208 20.5493 148.376 20.4267 148.591 20.304C148.806 20.1813 148.99 20.0893 149.143 20.028C149.296 19.9667 149.342 19.798 149.281 19.522C149.22 19.246 149.128 19.062 149.005 18.97C148.882 18.8473 148.668 18.7707 148.361 18.74ZM151.443 19.108L150.983 19.2L151.213 19.66L151.719 19.798L151.857 19.292L151.443 19.108ZM155.721 21.454L155.399 21.224L155.261 21.592L155.445 22.006L155.767 21.73L155.721 21.454ZM151.627 21.96C151.412 21.7453 151.152 21.7147 150.845 21.868C150.538 22.0213 150.416 22.2667 150.477 22.604C150.538 22.9413 150.738 23.1407 151.075 23.202C151.32 23.2327 151.504 23.248 151.627 23.248C151.75 23.2173 151.872 23.0947 151.995 22.88C152.087 22.6653 152.087 22.512 151.995 22.42C151.934 22.2973 151.811 22.144 151.627 21.96ZM155.031 23.57C154.632 23.294 154.249 23.294 153.881 23.57C153.666 23.7233 153.544 23.8767 153.513 24.03C153.513 24.1527 153.559 24.3367 153.651 24.582C153.743 24.8887 153.82 25.134 153.881 25.318C153.942 25.4713 154.126 25.548 154.433 25.548C154.77 25.548 155.016 25.502 155.169 25.41C155.353 25.318 155.506 25.1033 155.629 24.766C155.721 24.4593 155.706 24.2447 155.583 24.122C155.46 23.9687 155.276 23.7847 155.031 23.57ZM148.683 23.662C148.438 23.57 148.238 23.5547 148.085 23.616C147.962 23.6467 147.824 23.7693 147.671 23.984C147.548 24.1987 147.518 24.3673 147.579 24.49C147.64 24.582 147.748 24.72 147.901 24.904C148.085 25.1187 148.223 25.3027 148.315 25.456C148.407 25.5787 148.576 25.5787 148.821 25.456C149.128 25.364 149.312 25.2567 149.373 25.134C149.465 24.9807 149.511 24.7507 149.511 24.444C149.48 24.1373 149.404 23.9533 149.281 23.892C149.158 23.8 148.959 23.7233 148.683 23.662ZM151.811 26.008L151.489 25.87L151.259 26.238L151.535 26.606L151.995 26.376L151.811 26.008ZM150.247 26.882L149.879 26.606L149.465 26.882L149.603 27.434L150.063 27.296L150.247 26.882ZM148.315 27.848C148.315 27.572 148.284 27.3727 148.223 27.25C148.162 27.0967 147.993 26.974 147.717 26.882C147.502 26.8207 147.364 26.8667 147.303 27.02C147.242 27.1427 147.134 27.3113 146.981 27.526C146.828 27.7407 146.828 27.9553 146.981 28.17C147.134 28.354 147.242 28.492 147.303 28.584C147.364 28.676 147.502 28.6913 147.717 28.63C147.962 28.538 148.116 28.446 148.177 28.354C148.269 28.262 148.315 28.0933 148.315 27.848ZM154.571 27.02C154.387 26.9893 154.249 27.0967 154.157 27.342C154.065 27.5567 154.08 27.7253 154.203 27.848C154.326 27.9707 154.494 27.9707 154.709 27.848C154.832 27.7867 154.924 27.7407 154.985 27.71C155.077 27.6487 155.108 27.5567 155.077 27.434C155.016 27.1887 154.847 27.0507 154.571 27.02ZM151.489 28.538L151.213 28.17L150.753 28.446L150.891 28.952L151.351 28.906L151.489 28.538ZM151.857 30.746C151.826 30.5313 151.78 30.378 151.719 30.286C151.688 30.1633 151.566 30.0713 151.351 30.01C151.106 29.9793 150.922 29.9793 150.799 30.01C150.676 30.0407 150.554 30.1633 150.431 30.378C150.308 30.5927 150.308 30.746 150.431 30.838C150.554 30.8993 150.692 31.0067 150.845 31.16C150.937 31.2827 151.014 31.3747 151.075 31.436C151.167 31.4973 151.29 31.4973 151.443 31.436C151.75 31.2827 151.888 31.0527 151.857 30.746ZM155.767 30.47C155.675 30.2553 155.552 30.1633 155.399 30.194C155.246 30.2247 155.046 30.2553 154.801 30.286C154.586 30.3167 154.418 30.3473 154.295 30.378C154.203 30.4087 154.126 30.5313 154.065 30.746C154.034 31.022 154.019 31.2367 154.019 31.39C154.019 31.5433 154.142 31.6813 154.387 31.804C154.602 31.9267 154.755 31.9267 154.847 31.804C154.939 31.6507 155.077 31.482 155.261 31.298C155.445 31.114 155.598 30.9913 155.721 30.93C155.844 30.838 155.859 30.6847 155.767 30.47Z" fill="white"/>
</svg>
